<svg width="13" height="7" viewBox="0 0 13 7" fill="none" xmlns="http://www.w3.org/2000/svg">
<path d="M12.9977 1.74588C12.9981 1.87978 12.9686 2.01209 12.9112 2.13308C12.8538 2.25407 12.77 2.36066 12.666 2.44502L7.28799 6.77433C7.12761 6.90617 6.92643 6.97824 6.71882 6.97824C6.5112 6.97824 6.31003 6.90617 6.14964 6.77433L0.771612 2.29264C0.588564 2.1405 0.473453 1.92187 0.4516 1.68486C0.429748 1.44784 0.502944 1.21185 0.655088 1.02881C0.807231 0.845759 1.02586 0.730647 1.26287 0.708795C1.49989 0.686942 1.73588 0.760139 1.91892 0.912282L6.7233 4.91891L11.5277 1.04673C11.6592 0.937126 11.8195 0.867501 11.9894 0.846097C12.1593 0.824693 12.3317 0.852405 12.4864 0.925955C12.641 0.999504 12.7714 1.11581 12.862 1.26112C12.9526 1.40642 12.9997 1.57465 12.9977 1.74588Z" fill="white"/>
</svg>
