<svg width="472" height="488" viewBox="0 0 472 488" fill="none" xmlns="http://www.w3.org/2000/svg">
<path fill-rule="evenodd" clip-rule="evenodd" d="M229.266 16.6466C272.642 9.41851 317.707 -0.11447 357.68 19.4813C402.557 41.4813 444.99 78.7983 459.752 129.638C474.467 180.318 455.318 234.702 434.079 282.599C415.009 325.602 379.368 353.331 346.473 385.095C309.101 421.182 279.017 486.764 229.266 480.369C178.196 473.805 170.402 392.705 130.693 357.359C94.9795 325.57 28.986 333.503 11.9979 286.976C-4.8547 240.821 32.8669 192.928 54.7229 149.295C72.7831 113.241 95.6873 81.546 126.71 57.9699C157.307 34.7168 192.306 22.8056 229.266 16.6466Z" stroke="url(#paint0_linear)" stroke-width="14" stroke-linecap="round" stroke-linejoin="round"/>
<defs>
        <filter id="filter0_f" x="0.344727" y="30.5994" width="593.255" height="308.247" filterUnits="userSpaceOnUse" color-interpolation-filters="sRGB">
            <feFlood flood-opacity="0" result="BackgroundImageFix"/>
            <feBlend mode="normal" in="SourceGraphic" in2="BackgroundImageFix" result="shape"/>
            <feGaussianBlur stdDeviation="14" result="effect1_foregroundBlur"/>
        </filter>
        <linearGradient id="paint0_linear" x1="547.648" y1="279.899" x2="33.0568" y2="-14.812">
            <animate attributeName="x1" values="0;0;1;1;0" keyTimes="0;.25;.5;.75;1" dur="4s" repeatCount="indefinite" />
            <animate attributeName="y1" values="0;1;1;0;0" keyTimes="0;.25;.5;.75;1" dur="4s" repeatCount="indefinite" />
            <animate attributeName="x2" values="1;1;0;0;1" keyTimes="0;.25;.5;.75;1" dur="4s" repeatCount="indefinite" />
            <animate attributeName="y2" values="1;0;0;1;1" keyTimes="0;.25;.5;.75;1" dur="4s" repeatCount="indefinite" />
            <stop offset="0%" stop-color="#FEE5A6"/>
            <stop offset="33%" stop-color="#FDB092"/>
            <stop offset="66%" stop-color="#F92A2A"/>
            <stop offset="100%" stop-color="#FC80B8"/>
        </linearGradient>
        <linearGradient id="paint1_linear" x1="547.648" y1="279.899" x2="33.0568" y2="-14.812">
            <animate attributeName="x1" values="0;0;1;1;0" keyTimes="0;.25;.5;.75;1" dur="4s" repeatCount="indefinite" />
            <animate attributeName="y1" values="0;1;1;0;0" keyTimes="0;.25;.5;.75;1" dur="4s" repeatCount="indefinite" />
            <animate attributeName="x2" values="1;1;0;0;1" keyTimes="0;.25;.5;.75;1" dur="4s" repeatCount="indefinite" />
            <animate attributeName="y2" values="1;0;0;1;1" keyTimes="0;.25;.5;.75;1" dur="4s" repeatCount="indefinite" />
            <stop offset="0%" stop-color="#FEE5A6"/>
            <stop offset="33%" stop-color="#FDB092"/>
            <stop offset="66%" stop-color="#F92A2A"/>
            <stop offset="100%" stop-color="#FC80B8"/>
        </linearGradient>
</defs>
</svg>
