<svg width="528" height="544" viewBox="0 0 528 544" fill="none" xmlns="http://www.w3.org/2000/svg">
<g filter="url(#filter0_f)">
<path fill-rule="evenodd" clip-rule="evenodd" d="M257.266 44.6466C300.642 37.4185 345.707 27.8855 385.68 47.4813C430.557 69.4813 472.99 106.798 487.752 157.638C502.467 208.318 483.318 262.702 462.079 310.599C443.009 353.602 407.368 381.331 374.473 413.095C337.101 449.182 307.017 514.764 257.266 508.369C206.196 501.805 198.402 420.705 158.693 385.359C122.98 353.57 56.986 361.503 39.9979 314.976C23.1453 268.821 60.8669 220.928 82.7229 177.295C100.783 141.241 123.687 109.546 154.71 85.9699C185.307 62.7168 220.306 50.8056 257.266 44.6466Z" stroke="url(#paint0_linear)" stroke-width="14" stroke-linecap="round" stroke-linejoin="round"/>
</g>
<defs>
<filter id="filter0_f" x="0.784668" y="0.861599" width="527.149" height="542.946" filterUnits="userSpaceOnUse" color-interpolation-filters="sRGB">
<feFlood flood-opacity="0" result="BackgroundImageFix"/>
<feBlend mode="normal" in="SourceGraphic" in2="BackgroundImageFix" result="shape"/>
<feGaussianBlur stdDeviation="14" result="effect1_foregroundBlur"/>
</filter>
        <linearGradient id="paint0_linear" x1="547.648" y1="279.899" x2="33.0568" y2="-14.812">
            <animate attributeName="x1" values="0;0;1;1;0" keyTimes="0;.25;.5;.75;1" dur="4s" repeatCount="indefinite" />
            <animate attributeName="y1" values="0;1;1;0;0" keyTimes="0;.25;.5;.75;1" dur="4s" repeatCount="indefinite" />
            <animate attributeName="x2" values="1;1;0;0;1" keyTimes="0;.25;.5;.75;1" dur="4s" repeatCount="indefinite" />
            <animate attributeName="y2" values="1;0;0;1;1" keyTimes="0;.25;.5;.75;1" dur="4s" repeatCount="indefinite" />
            <stop offset="0%" stop-color="#FEE5A6"/>
            <stop offset="33%" stop-color="#FDB092"/>
            <stop offset="66%" stop-color="#F92A2A"/>
            <stop offset="100%" stop-color="#FC80B8"/>
        </linearGradient>
        <linearGradient id="paint1_linear" x1="547.648" y1="279.899" x2="33.0568" y2="-14.812">
            <animate attributeName="x1" values="0;0;1;1;0" keyTimes="0;.25;.5;.75;1" dur="4s" repeatCount="indefinite" />
            <animate attributeName="y1" values="0;1;1;0;0" keyTimes="0;.25;.5;.75;1" dur="4s" repeatCount="indefinite" />
            <animate attributeName="x2" values="1;1;0;0;1" keyTimes="0;.25;.5;.75;1" dur="4s" repeatCount="indefinite" />
            <animate attributeName="y2" values="1;0;0;1;1" keyTimes="0;.25;.5;.75;1" dur="4s" repeatCount="indefinite" />
            <stop offset="0%" stop-color="#FEE5A6"/>
            <stop offset="33%" stop-color="#FDB092"/>
            <stop offset="66%" stop-color="#F92A2A"/>
            <stop offset="100%" stop-color="#FC80B8"/>
        </linearGradient>
</defs>
</svg>
