<svg width="33" height="25" viewBox="0 0 33 25" fill="none" xmlns="http://www.w3.org/2000/svg">
<path d="M27.6266 2.66185C25.565 1.69726 23.384 1.01187 21.1412 0.62381C20.8619 1.12887 20.5355 1.80818 20.3104 2.3486C17.8923 1.985 15.4964 1.985 13.1228 2.3486C12.8978 1.8083 12.564 1.12887 12.2821 0.62381C10.0371 1.01205 7.85429 1.69918 5.79173 2.66689C1.6874 8.86919 0.574749 14.9173 1.13101 20.8797C3.85328 22.9126 6.49142 24.1476 9.08512 24.9557C9.72971 24.0692 10.2995 23.1308 10.7887 22.1499C9.85741 21.7954 8.95965 21.3585 8.10607 20.8444C8.3307 20.6779 8.55004 20.5044 8.76376 20.3241C13.9362 22.7434 19.5563 22.7434 24.6671 20.3241C24.8817 20.5032 25.101 20.6766 25.3246 20.8444C24.4697 21.3598 23.5702 21.7976 22.6371 22.1525C23.129 23.1373 23.6978 24.0767 24.3407 24.9581C26.9368 24.1502 29.5774 22.9152 32.2997 20.8797C32.9525 13.9678 31.1847 7.97511 27.6266 2.66173V2.66185ZM11.4934 17.2129C9.94064 17.2129 8.66724 15.7633 8.66724 13.9981C8.66724 12.2329 9.9135 10.7809 11.4934 10.7809C13.0734 10.7809 14.3467 12.2304 14.3195 13.9981C14.322 15.7633 13.0734 17.2129 11.4934 17.2129ZM21.9373 17.2129C20.3845 17.2129 19.1113 15.7633 19.1113 13.9981C19.1113 12.2329 20.3574 10.7809 21.9373 10.7809C23.5173 10.7809 24.7906 12.2304 24.7634 13.9981C24.7634 15.7633 23.5173 17.2129 21.9373 17.2129V17.2129Z" fill="white"/>
</svg>
