<svg width="22" height="22" viewBox="0 0 22 22" fill="none" xmlns="http://www.w3.org/2000/svg">
<path d="M11 0.0909424C5.20156 0.0909424 0.5 4.79251 0.5 10.5909C0.5 16.3894 5.20156 21.0909 11 21.0909C16.7984 21.0909 21.5 16.3894 21.5 10.5909C21.5 4.79251 16.7984 0.0909424 11 0.0909424ZM10.25 5.52844C10.25 5.42532 10.3344 5.34094 10.4375 5.34094H11.5625C11.6656 5.34094 11.75 5.42532 11.75 5.52844V11.9034C11.75 12.0066 11.6656 12.0909 11.5625 12.0909H10.4375C10.3344 12.0909 10.25 12.0066 10.25 11.9034V5.52844ZM11 15.8409C10.7056 15.8349 10.4253 15.7138 10.2192 15.5034C10.0132 15.2931 9.89773 15.0104 9.89773 14.7159C9.89773 14.4215 10.0132 14.1388 10.2192 13.9284C10.4253 13.7181 10.7056 13.597 11 13.5909C11.2944 13.597 11.5747 13.7181 11.7808 13.9284C11.9868 14.1388 12.1023 14.4215 12.1023 14.7159C12.1023 15.0104 11.9868 15.2931 11.7808 15.5034C11.5747 15.7138 11.2944 15.8349 11 15.8409Z" fill="#ED8282"/>
</svg>
