<svg width="59" height="67" viewBox="0 0 59 67" fill="none" xmlns="http://www.w3.org/2000/svg">
<path fill-rule="evenodd" clip-rule="evenodd" d="M31.3096 55.8432C41.6874 56.8983 46.1417 56.781 48.7837 55.3815C52.2198 53.5613 52.8272 51.9009 51.9299 46.7889C51.4716 44.1842 51.1897 41.1158 51.3031 39.9713C51.6007 36.9644 50.4733 35.6015 48.4004 36.4637C43.4743 38.5122 42.2093 40.4066 42.5049 45.2936L42.6854 48.2648L38.7216 45.6236C31.639 40.9023 28.9118 38.2451 25.6017 32.843C22.9403 28.4982 22.3844 26.5412 22.5483 22.0896C22.8174 14.7845 23.887 10.3844 26.676 5.11988C29.3212 0.126636 29.3239 -0.495001 26.6957 1.09602C23.0184 3.32219 18.6314 14.8526 17.9753 24.0179C17.5888 29.4197 17.894 30.4257 21.9265 37.0282C24.3303 40.9638 27.6622 45.1217 29.3301 46.2683C35.1561 50.2739 35.1399 50.2423 31.0111 49.5913C27.8367 49.0912 26.6886 49.2676 24.502 50.5913C20.0954 53.259 22.2504 54.9217 31.3096 55.8432Z" fill="white" fill-opacity="0.6"/>
</svg>
